2014001_C1_03_grf
version=1
nRows=27
nColumns=19
inDegrees=no
endheader
time	ground_force_1_vx	ground_force_1_vy	ground_force_1_vz	ground_force_1_px	ground_force_1_py	ground_force_1_pz	ground_force_1_mx	ground_force_1_my	ground_force_1_mz	ground_force_2_vx	ground_force_2_vy	ground_force_2_vz	ground_force_2_px	ground_force_2_py	ground_force_2_pz	ground_force_2_mx	ground_force_2_my	ground_force_2_mz
      1.22500000	     -9.36285704	    659.85069051	     13.01402971	      0.33043015	     -0.00200000	      0.18100147	     -0.00000000	      0.27789850	      0.00000000	      0.00000000	      0.00000000	      0.00000000	      0.00000000	      0.00000000	      0.00000000	      0.00000000	      0.00000000	      0.00000000
      1.22600000	     -9.39382389	    659.85535830	     13.08663469	      0.33048424	     -0.00200000	      0.18108877	      0.00000000	      0.27382068	      0.00000000	      0.00000000	      0.00000000	      0.00000000	      0.00000000	      0.00000000	      0.00000000	      0.00000000	      0.00000000	      0.00000000
      1.22700000	     -9.42533799	    659.85582769	     13.15924292	      0.33053797	     -0.00200000	      0.18117629	      0.00000000	      0.26984439	      0.00000000	      0.00000000	      0.00000000	      0.00000000	      0.00000000	      0.00000000	      0.00000000	      0.00000000	      0.00000000	      0.00000000
      1.22800000	     -9.45728272	    659.85280275	     13.23186941	      0.33059139	     -0.00200000	      0.18126396	      0.00000000	      0.26594426	      0.00000000	      0.00000000	      0.00000000	      0.00000000	      0.00000000	      0.00000000	      0.00000000	      0.00000000	      0.00000000	      0.00000000
      1.22900000	     -9.48975049	    659.84534472	     13.30453828	      0.33064440	     -0.00200000	      0.18135179	      0.00000000	      0.26213400	      0.00000000	      0.00000000	      0.00000000	      0.00000000	      0.00000000	      0.00000000	      0.00000000	      0.00000000	      0.00000000	      0.00000000
      1.23000000	     -9.52261835	    659.83428806	     13.37725148	      0.33069707	     -0.00200000	      0.18143974	      0.00000000	      0.25839202	      0.00000000	      0.00000000	      0.00000000	      0.00000000	      0.00000000	      0.00000000	      0.00000000	      0.00000000	      0.00000000	      0.00000000
      1.23100000	     -9.55595635	    659.81874615	     13.45004877	      0.33074926	     -0.00200000	      0.18152781	      0.00000000	      0.25473363	      0.00000000	      0.00000000	      0.00000000	      0.00000000	      0.00000000	      0.00000000	      0.00000000	      0.00000000	      0.00000000	      0.00000000
      1.23200000	     -9.58964452	    659.79955345	     13.52293864	      0.33080106	     -0.00200000	      0.18161597	      0.00000000	      0.25114241	      0.00000000	      0.00000000	      0.00000000	      0.00000000	      0.00000000	      0.00000000	      0.00000000	      0.00000000	      0.00000000	      0.00000000
      1.23300000	     -9.62373391	    659.77582335	     13.59598236	      0.33085234	     -0.00200000	      0.18170421	      0.00000000	      0.24763530	      0.00000000	      0.00000000	      0.00000000	      0.00000000	      0.00000000	      0.00000000	      0.00000000	      0.00000000	      0.00000000	      0.00000000
      1.23400000	     -9.65811610	    659.74854678	     13.66918646	      0.33090318	     -0.00200000	      0.18179250	      0.00000000	      0.24419609	      0.00000000	      0.00000000	      0.00000000	      0.00000000	      0.00000000	      0.00000000	      0.00000000	      0.00000000	      0.00000000	      0.00000000
      1.23500000	     -9.69283283	    659.71686319	     13.74263959	      0.33095344	     -0.00200000	      0.18188085	      0.00000000	      0.24084209	      0.00000000	      0.00000000	      0.00000000	      0.00000000	      0.00000000	      0.00000000	      0.00000000	      0.00000000	      0.00000000	      0.00000000
      1.23600000	     -9.72779244	    659.68173742	     13.81633002	      0.33100321	     -0.00200000	      0.18196922	     -0.00000000	      0.23755577	      0.00000000	      0.00000000	      0.00000000	      0.00000000	      0.00000000	      0.00000000	      0.00000000	      0.00000000	      0.00000000	      0.00000000
      1.23700000	     -9.76302885	    659.64236110	     13.89036337	      0.33105237	     -0.00200000	      0.18205760	      0.00000000	      0.23435173	      0.00000000	      0.00000000	      0.00000000	      0.00000000	      0.00000000	      0.00000000	      0.00000000	      0.00000000	      0.00000000	      0.00000000
      1.23800000	     -9.79846120	    659.59969908	     13.96470964	      0.33110101	     -0.00200000	      0.18214597	      0.00000000	      0.23121108	      0.00000000	      0.00000000	      0.00000000	      0.00000000	      0.00000000	      0.00000000	      0.00000000	      0.00000000	      0.00000000	      0.00000000
      1.23900000	     -9.83410031	    659.55302119	     14.03948683	      0.33114898	     -0.00200000	      0.18223431	     -0.00000000	      0.22814741	      0.00000000	      0.00000000	      0.00000000	      0.00000000	      0.00000000	      0.00000000	      0.00000000	      0.00000000	      0.00000000	      0.00000000
      1.24000000	     -9.86987203	    659.50310975	     14.11463954	      0.33119640	     -0.00200000	      0.18232258	     -0.00000000	      0.22514402	      0.00000000	      0.00000000	      0.00000000	      0.00000000	      0.00000000	      0.00000000	      0.00000000	      0.00000000	      0.00000000	      0.00000000
      1.24100000	     -9.90576595	    659.44926068	     14.19029357	      0.33124311	     -0.00200000	      0.18241075	      0.00000000	      0.22221412	      0.00000000	      0.00000000	      0.00000000	      0.00000000	      0.00000000	      0.00000000	      0.00000000	      0.00000000	      0.00000000	      0.00000000
      1.24200000	     -9.94172171	    659.39233452	     14.26637527	      0.33128924	     -0.00200000	      0.18249881	      0.00000000	      0.21934185	      0.00000000	      0.00000000	      0.00000000	      0.00000000	      0.00000000	      0.00000000	      0.00000000	      0.00000000	      0.00000000	      0.00000000
      1.24300000	     -9.97771025	    659.33157504	     14.34301632	      0.33133463	     -0.00200000	      0.18258667	      0.00000000	      0.21653795	      0.00000000	      0.00000000	      0.00000000	      0.00000000	      0.00000000	      0.00000000	      0.00000000	      0.00000000	      0.00000000	      0.00000000
      1.24400000	    -10.01368836	    659.26779062	     14.42012154	      0.33137942	     -0.00200000	      0.18267436	      0.00000000	      0.21378352	      0.00000000	      0.00000000	      0.00000000	      0.00000000	      0.00000000	      0.00000000	      0.00000000	      0.00000000	      0.00000000	      0.00000000
      1.24500000	    -10.04961021	    659.20032933	     14.49781870	      0.33142346	     -0.00200000	      0.18276177	      0.00000000	      0.21107986	      0.00000000	      0.00000000	      0.00000000	      0.00000000	      0.00000000	      0.00000000	      0.00000000	      0.00000000	      0.00000000	      0.00000000
      1.24600000	    -10.08545682	    659.13005173	     14.57599178	      0.33146688	     -0.00200000	      0.18284894	      0.00000000	      0.20840664	      0.00000000	      0.00000000	      0.00000000	      0.00000000	      0.00000000	      0.00000000	      0.00000000	      0.00000000	      0.00000000	      0.00000000
      1.24700000	    -10.12117192	    659.05630589	     14.65474898	      0.33150953	     -0.00200000	      0.18293576	      0.00000000	      0.20575925	      0.00000000	      0.00000000	      0.00000000	      0.00000000	      0.00000000	      0.00000000	      0.00000000	      0.00000000	      0.00000000	      0.00000000
      1.24800000	    -10.15675366	    658.97995234	     14.73395992	      0.33155155	     -0.00200000	      0.18302229	      0.00000000	      0.20312326	      0.00000000	      0.00000000	      0.00000000	      0.00000000	      0.00000000	      0.00000000	      0.00000000	      0.00000000	      0.00000000	      0.00000000
      1.24900000	    -10.19213162	    658.90049562	     14.81371392	      0.33159275	     -0.00200000	      0.18310843	      0.00000000	      0.20048992	      0.00000000	      0.00000000	      0.00000000	      0.00000000	      0.00000000	      0.00000000	      0.00000000	      0.00000000	      0.00000000	      0.00000000
      1.25000000	    -10.22731215	    658.81874412	     14.89388514	      0.33163330	     -0.00200000	      0.18319424	      0.00000000	      0.19785004	      0.00000000	      0.00000000	      0.00000000	      0.00000000	      0.00000000	      0.00000000	      0.00000000	      0.00000000	      0.00000000	      0.00000000
      1.25100000	    -10.26220359	    658.73446316	     14.97455770	      0.33167297	     -0.00200000	      0.18327963	      0.00000000	      0.19519051	      0.00000000	      0.00000000	      0.00000000	      0.00000000	      0.00000000	      0.00000000	      0.00000000	      0.00000000	      0.00000000	      0.00000000
